# xmcd
#
# Track frame offsets:
#	150
#	14677
#	27022
#	45572
#	59790
#	72320
#	88317
#	104132
#	121910
#	134355
#	149605
#
# Disc length: 2272 seconds
# Revision: 0
# Processed by: cddbd v1.5.2PL0 Copyright (c) Steve Scherf et al.
# Submitted via: dBpowerAMP V12.0
#
DISCID=ac08de0b
DTITLE=Miranda Lambert - Crazy Ex-Girlfriend
DYEAR=2007
DGENRE=Country
TTITLE0=Gunpowder and Lead
TTITLE1=Dry Town
TTITLE2=Famous In A Small Town
TTITLE3=Crazy Ex-Girlfriend
TTITLE4=Love Letters
TTITLE5=Desperation
TTITLE6=More Like Her 
TTITLE7=Down
TTITLE8=Guilty In Here
TTITLE9=Getting Ready
TTITLE10=Easy From Now On
EXTD=
EXTT0=
EXTT1=
EXTT2=
EXTT3=
EXTT4=
EXTT5=
EXTT6=
EXTT7=
EXTT8=
EXTT9=
EXTT10=
PLAYORDER=
